<?xml version="1.0" standalone="no"?><!DOCTYPE svg PUBLIC "-//W3C//DTD SVG 1.1//EN" "http://www.w3.org/Graphics/SVG/1.1/DTD/svg11.dtd"><svg t="1745398749897" class="icon" viewBox="0 0 1024 1024" version="1.1" xmlns="http://www.w3.org/2000/svg" p-id="6821" xmlns:xlink="http://www.w3.org/1999/xlink" width="200" height="200"><path d="M877.51 42.47h-595.4c-48.73 0-90.88 35.28-98.79 84.42 5.45 10.99 13.02 15.22 20.23 15.62h0.01c0.73 0.04 1.45 0.04 2.17 0h575.68c55.62 0 100.69 45.11 100.65 100.73l-0.08 105.21h100.13V147.07c0-57.77-46.83-104.6-104.6-104.6z" fill="#FFF4FD" p-id="6822"></path><path d="M741.89 183.31h-600c-55.23 0-100 44.77-100 100v65.14h800v-65.14c0-55.23-44.77-100-100-100z" fill="#FFF4FD" p-id="6823"></path><path d="M881.98 348.45l-0.26 342.09h100.39V348.45zM41.89 348.45h800v342.09h-800z" fill="#FFE0F8" p-id="6824"></path><path d="M881.72 690.54l-0.1 130.18h0.01c0.05 1.41 0.23 2.83 0.59 4.25 2.29 9.06 10.43 15.1 19.38 15.1 1.62 0 3.27-0.2 4.92-0.62 44.51-11.26 75.59-51.13 75.59-96.97v-51.94H881.72zM41.89 883.31c0 55.23 44.77 100 100 100h600c55.23 0 100-44.77 100-100V690.54h-800v192.77z" fill="#FFC2F1" p-id="6825"></path><path d="M616.89 563.31h-155v-155c0-11.05-8.95-20-20-20s-20 8.95-20 20v155h-155c-11.05 0-20 8.95-20 20s8.95 20 20 20h155v155c0 11.05 8.95 20 20 20s20-8.95 20-20v-155h155c11.05 0 20-8.95 20-20s-8.96-20-20-20z" fill="#333333" p-id="6826"></path><path d="M741.89 183.31h-600c-55.14 0-100 44.86-100 100v600c0 55.14 44.86 100 100 100h600c55.14 0 100-44.86 100-100v-600c0-55.14-44.86-100-100-100z m60 700c0 33.08-26.92 60-60 60h-600c-33.08 0-60-26.92-60-60v-600c0-33.08 26.92-60 60-60h600c33.08 0 60 26.92 60 60v600z" fill="#333333" p-id="6827"></path><path d="M882.11 42.48h-600c-45.57 0-85.39 30.86-96.83 75.06-2.77 10.69 3.66 21.61 14.35 24.37 10.69 2.77 21.61-3.66 24.37-14.35 6.87-26.54 30.77-45.08 58.11-45.08h600c33.08 0 60 26.92 60 60v600c0 27.5-18.67 51.43-45.4 58.19-10.71 2.71-17.19 13.58-14.49 24.29 2.29 9.06 10.43 15.1 19.38 15.1 1.62 0 3.27-0.2 4.92-0.62 44.51-11.26 75.59-51.13 75.59-96.97v-600c0-55.14-44.86-99.99-100-99.99z" fill="#333333" p-id="6828"></path></svg>