<?xml version="1.0" standalone="no"?><!DOCTYPE svg PUBLIC "-//W3C//DTD SVG 1.1//EN" "http://www.w3.org/Graphics/SVG/1.1/DTD/svg11.dtd"><svg t="1745398773207" class="icon" viewBox="0 0 1024 1024" version="1.1" xmlns="http://www.w3.org/2000/svg" p-id="6989" xmlns:xlink="http://www.w3.org/1999/xlink" width="200" height="200"><path d="M659.49 309.97a181.75 181.75 0 0 0 28.15 31.87h239.79c36.86-32.98 60.11-80.89 60.11-134.13 0-99.25-80.75-180-180-180s-180 80.75-180 180c0 23.69 4.61 46.32 12.96 67.06l-127.79 67.08h86.06l60.72-31.88z" fill="#F6F6FF" p-id="6990"></path><path d="M396.46 512.89c0-20.86-3.58-40.89-10.13-59.53l212.44-111.51h-86.06l-143.79 75.47c-22.16-35.22-56.18-62.25-96.41-75.47-17.65-5.8-36.49-8.95-56.06-8.95s-38.42 3.15-56.07 8.95C88.51 365.47 36.46 433.21 36.46 512.89s52.05 147.42 123.93 171.05h112.13c40.23-13.22 74.25-40.25 96.41-75.47l143.79 75.47h86.06L386.33 572.42c6.56-18.64 10.13-38.67 10.13-59.53zM927.43 341.85H687.64c31.85 28.51 73.88 45.87 119.89 45.87 46.02-0.01 88.04-17.37 119.9-45.87zM807.54 638.07c-46.01 0-88.04 17.36-119.89 45.87h239.79c-31.87-28.51-73.89-45.87-119.9-45.87z" fill="#E4E3FF" p-id="6991"></path><path d="M927.43 683.94H687.64a181.75 181.75 0 0 0-28.15 31.87l-60.72-31.87h-86.06l127.79 67.08c-8.35 20.74-12.96 43.37-12.96 67.06 0 99.25 80.75 180 180 180s180-80.75 180-180c0-53.25-23.25-101.16-60.11-134.14zM216.46 692.89c19.57 0 38.41-3.15 56.06-8.95H160.39c17.65 5.8 36.5 8.95 56.07 8.95z" fill="#D2D0FF" p-id="6992"></path><path d="M807.54 638.07c-61.3 0-115.52 30.8-148.04 77.74L386.33 572.42c6.55-18.64 10.13-38.68 10.13-59.53 0-20.86-3.58-40.89-10.13-59.53l273.16-143.38c32.52 46.93 86.75 77.74 148.04 77.74 99.25 0 180-80.75 180-180s-80.75-180-180-180-180 80.75-180 180c0 23.69 4.61 46.32 12.96 67.06L368.93 417.32c-31.88-50.68-88.3-84.43-152.46-84.43-99.25 0-180 80.75-180 180s80.75 180 180 180c64.16 0 120.58-33.75 152.46-84.43L640.5 751.01c-8.35 20.74-12.96 43.37-12.96 67.06 0 99.25 80.75 180 180 180s180-80.75 180-180-80.75-180-180-180z m0-570.36c77.2 0 140 62.8 140 140s-62.8 140-140 140-140-62.8-140-140 62.8-140 140-140zM216.46 652.89c-77.2 0-140-62.8-140-140s62.8-140 140-140 140 62.8 140 140-62.8 140-140 140z m591.08 305.18c-77.2 0-140-62.8-140-140s62.8-140 140-140 140 62.8 140 140-62.81 140-140 140z" fill="#333333" p-id="6993"></path></svg>