<?xml version="1.0" standalone="no"?><!DOCTYPE svg PUBLIC "-//W3C//DTD SVG 1.1//EN" "http://www.w3.org/Graphics/SVG/1.1/DTD/svg11.dtd"><svg t="1745409098290" class="icon" viewBox="0 0 1024 1024" version="1.1" xmlns="http://www.w3.org/2000/svg" p-id="11002" xmlns:xlink="http://www.w3.org/1999/xlink" width="200" height="200"><path d="M916.4 281.6h-98c-18.4 0-34.8-11.8-40.6-29.3l-17.7-53.1c-9.3-27.8-35.3-46.5-64.5-46.5H407c-29.3 0-55.3 18.7-64.5 46.5l-17.7 53.1c-5.8 17.5-22.2 29.3-40.6 29.3h-141c-23.7 0-43 19.2-43 43V840c0 23.7 19.2 43 43 43h773.1c23.7 0 43-19.2 43-43V324.6c0-23.7-19.2-43-42.9-43z" fill="#c2bfef" p-id="11003" data-spm-anchor-id="a313x.search_index.0.i19.53433a81LduKhS" class="selected"></path><path d="M533.2 711.1c-96.8 0-175.5-78.7-175.5-175.5s78.7-175.5 175.5-175.5 175.5 78.7 175.5 175.5-78.8 175.5-175.5 175.5z m0-322.1c-80.9 0-146.6 65.8-146.6 146.6 0 80.9 65.8 146.6 146.6 146.6s146.6-65.8 146.6-146.6S614 389 533.2 389z" fill="#FFFFFF" p-id="11004"></path><path d="M930.5 622.4c-4 0-7.2-3.2-7.2-7.2v-305c0-19.7-16-35.7-35.7-35.7h-12.7c-4 0-7.2-3.2-7.2-7.2s3.2-7.2 7.2-7.2h12.7c27.7 0 50.2 22.5 50.2 50.2v305c-0.1 3.9-3.4 7.1-7.3 7.1zM930.5 653.3c-4 0-7.2-3.2-7.2-7.2V644c0-4 3.2-7.2 7.2-7.2s7.2 3.2 7.2 7.2v2.1c0 4-3.3 7.2-7.2 7.2zM887.5 875.7h-540c-4 0-7.2-3.2-7.2-7.2s3.2-7.2 7.2-7.2h540c19.7 0 35.7-16 35.7-35.7V710.5c0-4 3.2-7.2 7.2-7.2s7.2 3.2 7.2 7.2v115.1c0.1 27.6-22.4 50.1-50.1 50.1zM271.2 875.7H114.4c-27.7 0-50.2-22.5-50.2-50.2V626.8c0-4 3.2-7.2 7.2-7.2s7.2 3.2 7.2 7.2v198.8c0 19.7 16 35.7 35.7 35.7h156.8c4 0 7.2 3.2 7.2 7.2 0.1 4-3.2 7.2-7.1 7.2zM71.4 609.3c-4 0-7.2-3.2-7.2-7.2v-2.9c0-4 3.2-7.2 7.2-7.2s7.2 3.2 7.2 7.2v2.9c0 3.9-3.2 7.2-7.2 7.2zM71.4 561.3c-4 0-7.2-3.2-7.2-7.2v-244c0-27.7 22.5-50.2 50.2-50.2h141c15.3 0 28.9-9.8 33.8-24.3l17.7-53.1c10.3-30.8 38.9-51.5 71.4-51.5h288.5c32.4 0 61.1 20.7 71.4 51.5l17.7 53.1c4.9 14.6 18.4 24.3 33.8 24.3h27c4 0 7.2 3.2 7.2 7.2s-3.2 7.2-7.2 7.2h-27c-21.6 0-40.6-13.7-47.4-34.2L724.6 187c-8.3-24.9-31.5-41.6-57.7-41.6H378.2c-26.2 0-49.4 16.7-57.7 41.6l-17.7 53.1c-6.8 20.5-25.9 34.2-47.4 34.2h-141c-19.7 0-35.7 16-35.7 35.7v243.9c-0.1 4.2-3.3 7.4-7.3 7.4z" p-id="11005"></path><path d="M305.9 317.7h-3.7c-4 0-7.2-3.2-7.2-7.2s3.2-7.2 7.2-7.2h3.7c15.3 0 28.9-9.8 33.8-24.3l7.2-21.6c1.3-3.8 5.3-5.8 9.1-4.6 3.8 1.3 5.8 5.3 4.6 9.1l-7.2 21.6c-6.9 20.5-26 34.2-47.5 34.2zM129.2 654.5c-4 0-7.2-3.2-7.2-7.2v-47.8c0-4 3.2-7.2 7.2-7.2s7.2 3.2 7.2 7.2v47.8c0 3.9-3.2 7.2-7.2 7.2z" fill="#FFFFFF" p-id="11006"></path><path d="M843.8 271.9c-8 0-14.4-6.5-14.4-14.4v-25.8c0-8 6.5-14.4 14.4-14.4 8 0 14.4 6.5 14.4 14.4v25.8c0.1 7.9-6.4 14.4-14.4 14.4z" fill="#FFCC00" p-id="11007"></path><path d="M122 681.4a7.2 6.8 0 1 0 14.4 0 7.2 6.8 0 1 0-14.4 0Z" fill="#FFFFFF" p-id="11008"></path><path d="M353 226.6a7.2 6.8 0 1 0 14.4 0 7.2 6.8 0 1 0-14.4 0Z" fill="#FFFFFF" p-id="11009"></path><path d="M894.4 755.5c-4 0-7.2-3.2-7.2-7.2v-47.8c0-4 3.2-7.2 7.2-7.2s7.2 3.2 7.2 7.2v47.8c0 4-3.2 7.2-7.2 7.2z" fill="#FFFFFF" p-id="11010"></path><path d="M894.4 666.9m-7.2 0a7.2 7.2 0 1 0 14.4 0 7.2 7.2 0 1 0-14.4 0Z" fill="#FFFFFF" p-id="11011"></path><path d="M422.2 515.6c-0.8 0-1.6-0.1-2.4-0.4-3.8-1.3-5.7-5.4-4.4-9.2 7.8-22.4 25.3-44.7 45.5-58.1 3.3-2.2 7.8-1.3 10 2s1.3 7.8-2 10c-17.7 11.8-33 31.3-39.9 50.9-1 3-3.8 4.8-6.8 4.8z" fill="#FFFFFF" p-id="11012"></path><path d="M490.1 433.8m-7.2 0a7.2 7.2 0 1 0 14.4 0 7.2 7.2 0 1 0-14.4 0Z" fill="#FFFFFF" p-id="11013"></path></svg>