<svg xmlns="http://www.w3.org/2000/svg" xmlns:xlink="http://www.w3.org/1999/xlink" viewBox="0 0 430 430" width="430" height="430" preserveAspectRatio="xMidYMid meet" style="width: 100%; height: 100%; transform: translate3d(0px, 0px, 0px); content-visibility: visible;"><defs><clipPath id="__lottie_element_26"><rect width="430" height="430" x="0" y="0"/></clipPath><clipPath id="__lottie_element_28"><path d="M0,0 L430,0 L430,430 L0,430z"/></clipPath><filter id="__lottie_element_34" x="-100%" y="-100%" width="300%" height="300%"><feGaussianBlur result="filter_result_0" stdDeviation="52.5 52.5" edgeMode="wrap"/></filter><g id="__lottie_element_35"><g clip-path="url(#__lottie_element_36)" transform="matrix(1,0,0,1,0,0)" opacity="1" style="display: block;"><g transform="matrix(1,0,0,1,-35,-46)" opacity="1" style="display: block;"><g opacity="1" transform="matrix(1,0,0,1,250,224.47999572753906)"><path stroke-linecap="round" stroke-linejoin="round" fill-opacity="0" class="primary" stroke="rgb(18,19,49)" stroke-opacity="1" stroke-width="12.04" d=" M0,158.63900756835938 C0,158.63900756835938 0,158.63900756835938 0,158.63900756835938 C-46.05400085449219,158.63900756835938 -82.64800262451172,119.94300079345703 -80.0790023803711,73.96099853515625 C-80.0790023803711,73.96099853515625 -73.41400146484375,-45.321998596191406 -73.41400146484375,-45.321998596191406 C-72.24099731445312,-66.31600189208984 -61.387001037597656,-84.5770034790039 -45.332000732421875,-95.86900329589844 C-34.53200149536133,-103.46499633789062 -21.37700080871582,-107.90799713134766 -7.23199987411499,-107.90799713134766 C-7.23199987411499,-107.90799713134766 7.232999801635742,-107.90799713134766 7.232999801635742,-107.90799713134766 C42.40399932861328,-107.90799713134766 71.4520034790039,-80.43800354003906 73.41400146484375,-45.321998596191406 C73.41400146484375,-45.321998596191406 80.0790023803711,73.96099853515625 80.0790023803711,73.96099853515625 C82.64800262451172,119.94300079345703 46.05400085449219,158.63900756835938 0,158.63900756835938z M-0.0760146751999855,-92.84228515625 C-0.0760146751999855,-92.84228515625 0,-107.91200256347656 0,-107.91200256347656 M75.53199768066406,-7.414000034332275 C45.44900131225586,20.969999313354492 -45.44900131225586,20.969999313354492 -75.53199768066406,-7.414000034332275 M0,13.869999885559082 C0,13.869999885559082 -0.0760146751999855,-35.80728530883789 -0.0760146751999855,-35.80728530883789"/></g><g opacity="1" transform="matrix(1,0,0,1,250,182.56100463867188)"><path stroke-linecap="round" stroke-linejoin="round" fill-opacity="0" class="secondary" stroke="rgb(8,168,138)" stroke-opacity="1" stroke-width="12.04" d=" M-0.20201466977596283,5.676713466644287 C-0.20201466977596283,5.676713466644287 0.04998532682657242,5.676713466644287 0.04998532682657242,5.676713466644287 C6.914985179901123,5.676713466644287 12.479985237121582,0.11171352118253708 12.479985237121582,-6.753286361694336 C12.479985237121582,-6.753286361694336 12.479985237121582,-37.99728775024414 12.479985237121582,-37.99728775024414 C12.479985237121582,-44.86228561401367 6.914985179901123,-50.42728805541992 0.04998532682657242,-50.42728805541992 C0.04998532682657242,-50.42728805541992 -0.20201466977596283,-50.42728805541992 -0.20201466977596283,-50.42728805541992 C-7.067014694213867,-50.42728805541992 -12.632014274597168,-44.86228561401367 -12.632014274597168,-37.99728775024414 C-12.632014274597168,-37.99728775024414 -12.632014274597168,-6.753286361694336 -12.632014274597168,-6.753286361694336 C-12.632014274597168,0.11171352118253708 -7.067014694213867,5.676713466644287 -0.20201466977596283,5.676713466644287z"/><path fill="rgb(255,0,0)" fill-opacity="1" d=" M-0.20201466977596283,5.676713466644287 C-0.20201466977596283,5.676713466644287 0.04998532682657242,5.676713466644287 0.04998532682657242,5.676713466644287 C6.914985179901123,5.676713466644287 12.479985237121582,0.11171352118253708 12.479985237121582,-6.753286361694336 C12.479985237121582,-6.753286361694336 12.479985237121582,-37.99728775024414 12.479985237121582,-37.99728775024414 C12.479985237121582,-44.86228561401367 6.914985179901123,-50.42728805541992 0.04998532682657242,-50.42728805541992 C0.04998532682657242,-50.42728805541992 -0.20201466977596283,-50.42728805541992 -0.20201466977596283,-50.42728805541992 C-7.067014694213867,-50.42728805541992 -12.632014274597168,-44.86228561401367 -12.632014274597168,-37.99728775024414 C-12.632014274597168,-37.99728775024414 -12.632014274597168,-6.753286361694336 -12.632014274597168,-6.753286361694336 C-12.632014274597168,0.11171352118253708 -7.067014694213867,5.676713466644287 -0.20201466977596283,5.676713466644287z"/></g></g><g transform="matrix(1,0,0,1,215,34.87216567993164)" opacity="1" style="display: block;"><g opacity="1" transform="matrix(1,0,0,1,0,0)"><path stroke-linecap="round" stroke-linejoin="round" fill-opacity="0" class="secondary" stroke="rgb(8,168,138)" stroke-opacity="1" stroke-width="12.04" d=" M-25.617000579833984,12.807999610900879 C-25.617000579833984,12.807999610900879 0,-12.807999610900879 0,-12.807999610900879 C0,-12.807999610900879 25.617000579833984,12.807999610900879 25.617000579833984,12.807999610900879"/></g></g><g transform="matrix(1,0,0,-1,215,388.99700927734375)" opacity="1" style="display: block;"><g opacity="1" transform="matrix(1,0,0,1,0,0)"><path stroke-linecap="round" stroke-linejoin="round" fill-opacity="0" class="secondary" stroke="rgb(8,168,138)" stroke-opacity="1" stroke-width="12.04" d=" M-25.617000579833984,12.807999610900879 C-25.617000579833984,12.807999610900879 0,-12.807999610900879 0,-12.807999610900879 C0,-12.807999610900879 25.617000579833984,12.807999610900879 25.617000579833984,12.807999610900879"/></g></g></g></g><clipPath id="__lottie_element_36"><path d="M0,0 L430,0 L430,430 L0,430z"/></clipPath><mask id="__lottie_element_35_1" mask-type="alpha"><use xmlns:ns1="http://www.w3.org/1999/xlink" ns1:href="#__lottie_element_35"/></mask></defs><g clip-path="url(#__lottie_element_26)"><g clip-path="url(#__lottie_element_28)" transform="matrix(1,0,0,1,0,0)" opacity="1" style="display: block;"><g mask="url(#__lottie_element_35_1)" style="display: block;"><g filter="url(#__lottie_element_34)" transform="matrix(2.391247510910034,0.20478150248527527,-0.20478150248527527,2.391247510910034,271.9410095214844,220.4600067138672)" opacity="1"><g class="design" opacity="1" transform="matrix(1,0,0,1,0,0)"><path class="primary" fill="rgb(75,225,236)" fill-opacity="1" d=" M0,-250 C137.97500610351562,-250 250,-137.97500610351562 250,0 C250,137.97500610351562 137.97500610351562,250 0,250 C-137.97500610351562,250 -250,137.97500610351562 -250,0 C-250,-137.97500610351562 -137.97500610351562,-250 0,-250z"/></g><g class="design" opacity="1" transform="matrix(1,0,0,1,113.24199676513672,-118.88400268554688)"><path class="secondary" fill="rgb(203,94,238)" fill-opacity="1" d=" M0,-176.5 C97.47799682617188,-176.5 176.5,-97.47799682617188 176.5,0 C176.5,97.47799682617188 97.47799682617188,176.5 0,176.5 C-43.948001861572266,176.5 -74.39600372314453,142.4429931640625 -105.29000091552734,115.86900329589844 C-142.92100524902344,83.5 -176.5,53.53099822998047 -176.5,0 C-176.5,-97.47799682617188 -97.47799682617188,-176.5 0,-176.5z"/></g></g></g></g></g></svg>