<?xml version="1.0" standalone="no"?><!DOCTYPE svg PUBLIC "-//W3C//DTD SVG 1.1//EN" "http://www.w3.org/Graphics/SVG/1.1/DTD/svg11.dtd"><svg t="1745399799838" class="icon" viewBox="0 0 1024 1024" version="1.1" xmlns="http://www.w3.org/2000/svg" p-id="8692" xmlns:xlink="http://www.w3.org/1999/xlink" width="200" height="200"><path d="M862.04 263.62c-19.19-45.82-46.62-87.03-81.55-122.47-34.94-35.46-75.59-63.32-120.8-82.81-46.87-20.2-96.57-30.45-147.69-30.45S411.18 38.14 364.3 58.35c-45.21 19.49-85.85 47.35-120.8 82.81-34.93 35.44-62.36 76.64-81.55 122.47-10.61 25.34-18.42 51.48-23.41 78.22h746.9c-4.97-26.75-12.79-52.89-23.4-78.23z" fill="#FFF4FD" p-id="8693"></path><path d="M132 683.94h760V413.18c0-24.14-2.19-47.97-6.55-71.34h-746.9c-4.36 23.37-6.55 47.2-6.55 71.34v270.76z" fill="#FFE0F8" p-id="8694"></path><path d="M132 807.89H82c-11.05 0-20 8.95-20 20s8.95 20 20 20h261.18c9.93 84.35 81.85 150 168.82 150s158.89-65.65 168.82-150H942c11.05 0 20-8.95 20-20s-8.95-20-20-20h-50V683.94H132v123.95z" fill="#FFC2F1" p-id="8695"></path><path d="M942 807.89h-50V413.18c0-51.76-10.08-102.08-29.96-149.56-19.19-45.82-46.62-87.03-81.55-122.47-34.94-35.46-75.59-63.32-120.8-82.81-46.87-20.2-96.57-30.45-147.69-30.45S411.18 38.14 364.3 58.35c-45.21 19.49-85.85 47.35-120.8 82.81-34.93 35.44-62.36 76.64-81.55 122.47C142.08 311.1 132 361.42 132 413.18v394.71H82c-11.05 0-20 8.95-20 20s8.95 20 20 20h261.18c9.93 84.35 81.85 150 168.82 150s158.89-65.65 168.82-150H942c11.05 0 20-8.95 20-20s-8.95-20-20-20zM172 413.18c0-190.39 152.52-345.29 340-345.29s340 154.9 340 345.29v394.71H172V413.18z m340 544.71c-64.88 0-118.81-47.78-128.46-110h256.92c-9.65 62.22-63.58 110-128.46 110z" fill="#333333" p-id="8696"></path></svg>