<?xml version="1.0" standalone="no"?><!DOCTYPE svg PUBLIC "-//W3C//DTD SVG 1.1//EN" "http://www.w3.org/Graphics/SVG/1.1/DTD/svg11.dtd"><svg t="1738507841495" class="icon" viewBox="0 0 1024 1024" version="1.1" xmlns="http://www.w3.org/2000/svg" p-id="7515" xmlns:xlink="http://www.w3.org/1999/xlink" width="200" height="200"><path d="M579.128889 511.943111a24.348444 24.348444 0 0 0-23.096889 23.893333c0 10.695111 11.548444 21.447111 23.096889 21.447112 17.294222 0 29.639111-10.752 29.639111-21.447112 0-13.198222-12.344889-23.893333-29.639111-23.893333zM503.239111 400.611556c18.204444 0 29.696-11.548444 29.696-28.842667 0-18.147556-11.548444-28.842667-29.696-28.842667-17.294222 0-33.792 10.695111-33.792 28.842667 0 17.294222 16.497778 28.842667 33.792 28.842667z m9.102222-394.296889a506.026667 506.026667 0 1 0 0 1012.053333 506.026667 506.026667 0 0 0 0-1012.053333zM416.711111 640.568889c-30.549333 0-52.792889-4.949333-81.635555-13.198222l-83.285334 42.040889 23.893334-70.883556C217.144889 557.283556 182.613333 505.344 182.613333 441.856c0-112.128 105.528889-197.859556 234.154667-197.859556 113.777778 0 215.153778 67.584 234.951111 163.271112a114.346667 114.346667 0 0 0-22.243555-2.503112c-112.128 0-198.712889 84.081778-198.712889 185.457778 0 17.351111 2.446222 32.995556 6.599111 49.493334-6.599111 0.853333-14.051556 0.853333-20.593778 0.853333z m343.779556 80.782222l16.497777 59.335111-62.691555-35.441778c-23.893333 4.949333-46.990222 12.401778-70.883556 12.401778-110.478222 0-197.859556-75.889778-197.859555-169.870222 0-93.980444 87.381333-169.813333 197.859555-169.813333 104.675556 0 198.712889 75.832889 198.712889 169.813333 0 52.792889-35.441778 99.783111-81.635555 133.575111zM340.024889 342.926222c-17.351111 0-35.441778 10.695111-35.441778 28.842667 0 17.294222 18.090667 28.842667 35.441778 28.842667 16.497778 0 29.639111-11.548444 29.639111-28.842667 0-18.147556-13.141333-28.842667-29.639111-28.842667z m368.526222 168.96a23.779556 23.779556 0 0 0-23.096889 23.950222c0 10.695111 10.752 21.447111 23.096889 21.447112 16.497778 0 28.842667-10.752 28.842667-21.447112 0-13.198222-12.344889-23.893333-28.842667-23.893333z" fill="#40BD2A" p-id="7516"></path></svg>