<?xml version="1.0" standalone="no"?><!DOCTYPE svg PUBLIC "-//W3C//DTD SVG 1.1//EN" "http://www.w3.org/Graphics/SVG/1.1/DTD/svg11.dtd"><svg t="1745399100645" class="icon" viewBox="0 0 1024 1024" version="1.1" xmlns="http://www.w3.org/2000/svg" p-id="8520" xmlns:xlink="http://www.w3.org/1999/xlink" width="200" height="200"><path d="M943.21 330.72c-23.57-55.73-57.31-105.78-100.29-148.75C799.95 139 749.9 105.25 694.17 81.68c-57.71-24.41-119-36.79-182.17-36.79S387.54 57.27 329.83 81.68c-55.73 23.57-105.78 57.31-148.75 100.29-42.97 42.97-76.72 93.02-100.29 148.75-1.4 3.32-2.76 6.65-4.09 9.99h870.6c-1.32-3.34-2.68-6.67-4.09-9.99z" fill="#F6F6FF" p-id="8521"></path><path d="M75.81 682.8h872.38C969.3 628.7 980 571.61 980 512.89c0-59.54-11-117.41-32.7-172.18H76.7C55 395.48 44 453.35 44 512.89c0 58.72 10.7 115.81 31.81 169.91z" fill="#E4E3FF" p-id="8522"></path><path d="M80.79 695.06c23.57 55.73 57.31 105.78 100.29 148.75 42.97 42.97 93.02 76.72 148.75 100.29 57.71 24.41 119 36.79 182.17 36.79s124.46-12.38 182.17-36.79c55.73-23.57 105.78-57.31 148.75-100.29 42.97-42.97 76.72-93.02 100.29-148.75 1.72-4.07 3.38-8.16 4.98-12.26H75.81c1.6 4.1 3.25 8.19 4.98 12.26z" fill="#D2D0FF" p-id="8523"></path><path d="M943.21 330.72c-23.57-55.73-57.31-105.78-100.29-148.75C799.95 139 749.9 105.25 694.17 81.68c-57.71-24.41-119-36.79-182.17-36.79S387.54 57.27 329.83 81.68c-55.73 23.57-105.78 57.31-148.75 100.29-42.97 42.97-76.72 93.02-100.29 148.75C56.38 388.43 44 449.72 44 512.89s12.38 124.46 36.79 182.17c23.57 55.73 57.31 105.78 100.29 148.75 42.97 42.97 93.02 76.72 148.75 100.29 57.71 24.41 119 36.79 182.17 36.79s124.46-12.38 182.17-36.79c55.73-23.57 105.78-57.31 148.75-100.29 42.97-42.97 76.72-93.02 100.29-148.75 24.41-57.71 36.79-119 36.79-182.17s-12.38-124.46-36.79-182.17zM512 940.89c-236 0-428-192-428-428s192-428 428-428 428 192 428 428-192 428-428 428z" fill="#333333" p-id="8524"></path><path d="M693.17 460.37L463.58 330.1c-18.79-10.66-41.15-10.54-59.81 0.33-18.67 10.87-29.82 30.26-29.82 51.86v260.55c0 21.6 11.15 40.99 29.82 51.86 9.43 5.49 19.81 8.24 30.19 8.24 10.16 0 20.33-2.64 29.62-7.91l229.58-130.27c19.04-10.79 30.41-30.3 30.41-52.18 0.01-21.89-11.36-41.41-30.4-52.21z m-19.74 69.6L443.84 660.25c-9.03 5.12-16.95 1.63-19.94-0.11-2.99-1.74-9.94-6.91-9.94-17.3V382.29c0-10.39 6.95-15.56 9.94-17.3 1.83-1.07 5.51-2.79 10.16-2.79 2.95 0 6.28 0.69 9.78 2.68l229.59 130.28c9.15 5.19 10.14 13.9 10.14 17.4 0 3.51-0.99 12.22-10.14 17.41z" fill="#333333" p-id="8525"></path></svg>